<?xml version="1.0" standalone="no"?>
<!DOCTYPE svg PUBLIC "-//W3C//DTD SVG 20010904//EN"
 "http://www.w3.org/TR/2001/REC-SVG-20010904/DTD/svg10.dtd">
<svg version="1.0" xmlns="http://www.w3.org/2000/svg"
 width="500.000000pt" height="500.000000pt" viewBox="0 0 500.000000 500.000000"
 preserveAspectRatio="xMidYMid meet">
<metadata>
Created by potrace 1.14, written by Peter Selinger 2001-2017
</metadata>
<g transform="translate(0.000000,500.000000) scale(0.100000,-0.100000)"
fill="#000000" stroke="none">
<path d="M0 2500 l0 -2500 2500 0 2500 0 0 2500 0 2500 -2500 0 -2500 0 0
-2500z m3201 1710 c255 -10 529 -28 538 -36 5 -4 -16 -404 -26 -496 l-6 -58
-686 0 c-761 0 -758 0 -818 -62 -65 -67 -65 -68 -64 -463 l1 -270 690 3 690 2
5 -22 c3 -13 5 -135 3 -273 l-3 -250 -692 -3 -693 -2 0 -380 c0 -419 1 -424
63 -488 60 -62 57 -62 819 -62 378 0 688 -3 688 -7 0 -5 7 -105 15 -223 8
-118 15 -240 15 -271 l0 -56 -167 -12 c-282 -20 -588 -30 -1043 -34 -567 -6
-643 2 -805 83 -182 91 -301 251 -341 458 -12 61 -14 270 -14 1196 0 740 4
1143 11 1182 55 312 286 520 614 552 99 10 846 5 1206 -8z"/>
</g>
</svg>
