<?xml version="1.0" standalone="no"?>
<!DOCTYPE svg PUBLIC "-//W3C//DTD SVG 20010904//EN"
 "http://www.w3.org/TR/2001/REC-SVG-20010904/DTD/svg10.dtd">
<svg version="1.0" xmlns="http://www.w3.org/2000/svg"
 width="511.000000pt" height="511.000000pt" viewBox="0 0 511.000000 511.000000"
 preserveAspectRatio="xMidYMid meet">
<metadata>
Created by potrace 1.14, written by Peter Selinger 2001-2017
</metadata>
<g transform="translate(0.000000,511.000000) scale(0.100000,-0.100000)"
fill="#000000" stroke="none">
<path d="M60 3656 l0 -243 1188 1 1187 1 1 230 c0 127 -2 236 -4 243 -3 9
-250 12 -1188 12 l-1184 0 0 -244z"/>
<path d="M2699 3867 c-1 -7 -2 -605 -3 -1330 l-1 -1317 241 0 241 0 0 394 0
395 82 98 c45 54 101 120 124 147 23 26 52 60 64 75 26 31 26 31 99 -74 91
-133 132 -191 364 -525 128 -184 260 -374 294 -422 l60 -88 289 0 c228 0 287
3 281 13 -10 15 -240 341 -454 642 -89 127 -179 253 -198 280 -65 93 -275 389
-324 457 -26 37 -48 70 -48 73 0 4 33 44 65 79 6 6 36 41 67 78 31 36 67 79
81 95 14 15 60 69 102 118 43 50 104 119 135 155 32 36 69 78 82 95 12 16 30
37 38 46 28 30 65 73 155 179 50 58 95 110 100 116 6 6 33 37 60 69 28 32 60
70 73 84 13 14 32 38 43 53 l19 26 -291 0 -291 0 -23 -27 c-23 -26 -121 -141
-205 -241 -70 -82 -180 -212 -209 -245 -14 -17 -48 -57 -76 -90 -27 -33 -52
-62 -55 -65 -3 -3 -28 -32 -55 -65 -28 -33 -52 -62 -55 -65 -3 -3 -41 -48 -85
-100 -44 -52 -84 -100 -90 -106 -5 -6 -30 -35 -55 -64 -104 -125 -124 -145
-141 -152 -23 -9 -21 -86 -21 634 l-1 586 -238 1 c-180 0 -239 -3 -240 -12z"/>
<path d="M69 2799 c-5 -3 -8 -106 -7 -244 l3 -239 1155 0 c635 -1 1169 0 1185
2 l30 4 -1 231 c-1 128 -2 237 -3 242 -1 11 -2345 15 -2362 4z"/>
<path d="M65 1702 c-3 -3 -5 -113 -5 -244 l0 -238 1187 2 1188 3 0 225 c1 124
-1 232 -3 241 -3 14 -112 16 -1183 16 -648 0 -1181 -2 -1184 -5z"/>
</g>
</svg>
