<?xml version="1.0" standalone="no"?>
<!DOCTYPE svg PUBLIC "-//W3C//DTD SVG 20010904//EN"
 "http://www.w3.org/TR/2001/REC-SVG-20010904/DTD/svg10.dtd">
<svg version="1.0" xmlns="http://www.w3.org/2000/svg"
 width="260.000000pt" height="260.000000pt" viewBox="0 0 260.000000 260.000000"
 preserveAspectRatio="xMidYMid meet">
<metadata>
Created by potrace 1.11, written by Peter Selinger 2001-2013
</metadata>
<g transform="translate(0.000000,260.000000) scale(0.100000,-0.100000)"
fill="#000000" stroke="none">
<path d="M0 1300 l0 -1300 1300 0 1300 0 0 1300 0 1300 -1300 0 -1300 0 0
-1300z m130 330 l0 -850 -40 0 -40 0 0 843 c0 464 3 847 7 850 3 4 21 7 40 7
l33 0 0 -850z m150 0 l0 -850 -40 0 -40 0 0 850 0 850 40 0 40 0 0 -850z m148
-2 l2 -848 -40 0 -40 0 0 851 0 850 38 -3 37 -3 3 -847z m932 812 l0 -40 -395
0 -395 0 0 -35 0 -35 395 0 395 0 0 -35 0 -35 -392 -2 -393 -3 -3 -37 -3 -38
395 0 396 0 0 -35 0 -35 -395 0 -396 0 3 -147 3 -148 203 -3 202 -2 0 -35 0
-35 -205 0 -205 0 0 -35 0 -35 203 -2 202 -3 0 -35 0 -35 -202 -3 -203 -2 0
-35 0 -35 203 -2 202 -3 0 -35 0 -35 -202 -3 -203 -2 0 -145 0 -145 210 0 210
0 2 333 3 332 38 3 37 3 0 -335 0 -336 35 0 35 0 0 335 0 335 40 0 40 0 0
-335 0 -335 35 0 35 0 0 336 0 335 38 -3 37 -3 3 -847 2 -848 -40 0 -40 0 0
330 0 330 -35 0 -35 0 0 -330 0 -330 -40 0 -40 0 0 330 0 330 -35 0 -35 0 0
-330 0 -330 -40 0 -40 0 0 330 0 330 -245 0 -245 0 0 850 0 850 430 0 430 0 0
-40z m150 -1470 l0 -850 -35 0 -35 0 0 850 0 850 35 0 35 0 0 -850z m558 842
c-1 -5 -99 -196 -216 -425 l-213 -417 213 -417 c117 -230 215 -421 216 -425 2
-5 -14 -8 -36 -8 l-40 0 -65 122 c-35 68 -134 259 -218 425 l-154 302 96 188
c53 104 151 295 219 426 l121 237 41 0 c22 0 38 -4 36 -8z m162 0 c0 -5 -94
-194 -210 -419 -115 -226 -210 -416 -210 -423 0 -12 342 -691 402 -797 l29
-53 -43 0 -43 0 -217 424 -218 424 218 426 217 426 38 0 c20 0 37 -4 37 -8z
m170 5 c0 -2 -97 -194 -215 -425 l-216 -422 213 -417 c117 -229 215 -420 216
-425 2 -4 -14 -8 -36 -8 l-41 0 -74 143 c-41 78 -139 269 -218 424 l-144 282
71 138 c40 76 138 267 219 426 l147 287 39 0 c21 0 39 -2 39 -3z m160 -5 c0
-5 -94 -194 -210 -420 -115 -226 -210 -416 -210 -422 0 -11 325 -656 397 -787
l34 -63 -43 0 -43 0 -217 424 -217 424 217 426 217 426 38 0 c20 0 37 -4 37
-8z"/>
<path d="M570 1035 l0 -35 210 0 210 0 0 35 0 35 -210 0 -210 0 0 -35z"/>
<path d="M1070 1035 c0 -33 2 -35 35 -35 33 0 35 2 35 35 0 33 -2 35 -35 35
-33 0 -35 -2 -35 -35z"/>
<path d="M1220 1035 c0 -33 2 -35 35 -35 33 0 35 2 35 35 0 33 -2 35 -35 35
-33 0 -35 -2 -35 -35z"/>
<path d="M572 893 l3 -38 208 -3 207 -2 0 40 0 40 -211 0 -210 0 3 -37z"/>
<path d="M1070 890 c0 -39 1 -40 35 -40 34 0 35 1 35 40 0 39 -1 40 -35 40
-34 0 -35 -1 -35 -40z"/>
<path d="M1220 890 c0 -39 1 -40 35 -40 34 0 35 1 35 40 0 39 -1 40 -35 40
-34 0 -35 -1 -35 -40z"/>
</g>
</svg>
